<svg width="17" height="20" viewBox="0 0 17 20" fill="none" xmlns="http://www.w3.org/2000/svg">
<path d="M16.665 14.811C16.378 15.475 16.038 16.086 15.644 16.648C15.107 17.415 14.666 17.945 14.328 18.24C13.803 18.722 13.239 18.97 12.636 18.984C12.204 18.984 11.682 18.861 11.074 18.611C10.464 18.362 9.90402 18.24 9.39102 18.24C8.85402 18.24 8.27802 18.362 7.66102 18.611C7.04502 18.861 6.54702 18.992 6.16602 19.004C5.58902 19.029 5.01202 18.775 4.43702 18.24C4.07002 17.92 3.61102 17.37 3.06002 16.592C2.47002 15.763 1.98502 14.798 1.60502 13.701C1.19802 12.514 0.994019 11.366 0.994019 10.254C0.994019 8.98102 1.26902 7.88202 1.82002 6.96202C2.25402 6.22202 2.83002 5.63902 3.55002 5.21102C4.27102 4.78202 5.05102 4.56302 5.89002 4.54902C6.35002 4.54902 6.95302 4.69102 7.70002 4.97102C8.44702 5.25102 8.92702 5.39302 9.13602 5.39302C9.29402 5.39302 9.82502 5.22602 10.729 4.89502C11.582 4.58802 12.302 4.46102 12.892 4.51102C14.492 4.64002 15.693 5.27002 16.492 6.40602C15.062 7.27302 14.355 8.48602 14.369 10.043C14.381 11.256 14.822 12.265 15.686 13.066C16.078 13.438 16.515 13.725 17.001 13.929C16.895 14.236 16.783 14.529 16.665 14.811ZM12.998 0.380024C12.998 1.33002 12.65 2.21802 11.959 3.03902C11.123 4.01502 10.113 4.58002 9.01802 4.49102C9.00402 4.37702 8.99702 4.25702 8.99702 4.13102C8.99702 3.21802 9.39302 2.24202 10.1 1.44302C10.452 1.03902 10.9 0.702024 11.443 0.434023C11.985 0.170024 12.497 0.0240234 12.979 -0.000976562C12.992 0.127023 12.998 0.254024 12.998 0.380024Z" fill="#28D5C7"/>
</svg>
