<svg width="18" height="18" viewBox="0 0 18 18" fill="none" xmlns="http://www.w3.org/2000/svg">
<path d="M16 0H2C0.897 0 0 0.897 0 2V16C0 17.103 0.897 18 2 18H10C10.131 18 10.26 17.974 10.381 17.924C10.502 17.874 10.613 17.801 10.707 17.707L17.707 10.707C17.793 10.621 17.854 10.52 17.903 10.414C17.917 10.384 17.925 10.353 17.936 10.321C17.964 10.237 17.982 10.151 17.987 10.062C17.989 10.041 18 10.021 18 10V2C18 0.897 17.103 0 16 0ZM2 2H16V9H10C9.447 9 9 9.448 9 10V16H2V2ZM11 14.586V11H14.586L11 14.586Z" fill="#B6B6B6"/>
</svg>
